<svg id="visual" viewBox="0 0 960 540" width="960" height="540" xmlns="http://www.w3.org/2000/svg" xmlns:xlink="http://www.w3.org/1999/xlink" version="1.1"><rect x="0" y="0" width="960" height="540" fill="#6495ed"></rect><path d="M0 375L22.8 365C45.7 355 91.3 335 137 333.7C182.7 332.3 228.3 349.7 274 364C319.7 378.3 365.3 389.7 411.2 387.3C457 385 503 369 548.8 357C594.7 345 640.3 337 686 341.3C731.7 345.7 777.3 362.3 823 369.5C868.7 376.7 914.3 374.3 937.2 373.2L960 372L960 541L937.2 541C914.3 541 868.7 541 823 541C777.3 541 731.7 541 686 541C640.3 541 594.7 541 548.8 541C503 541 457 541 411.2 541C365.3 541 319.7 541 274 541C228.3 541 182.7 541 137 541C91.3 541 45.7 541 22.8 541L0 541Z" fill="#f9f9f9"></path><path d="M0 373L22.8 379.5C45.7 386 91.3 399 137 403C182.7 407 228.3 402 274 398.8C319.7 395.7 365.3 394.3 411.2 396.3C457 398.3 503 403.7 548.8 409.5C594.7 415.3 640.3 421.7 686 422.5C731.7 423.3 777.3 418.7 823 415.8C868.7 413 914.3 412 937.2 411.5L960 411L960 541L937.2 541C914.3 541 868.7 541 823 541C777.3 541 731.7 541 686 541C640.3 541 594.7 541 548.8 541C503 541 457 541 411.2 541C365.3 541 319.7 541 274 541C228.3 541 182.7 541 137 541C91.3 541 45.7 541 22.8 541L0 541Z" fill="#d8dff7"></path><path d="M0 419L22.8 422C45.7 425 91.3 431 137 428.7C182.7 426.3 228.3 415.7 274 419C319.7 422.3 365.3 439.7 411.2 447.8C457 456 503 455 548.8 445.8C594.7 436.7 640.3 419.3 686 412.2C731.7 405 777.3 408 823 408.7C868.7 409.3 914.3 407.7 937.2 406.8L960 406L960 541L937.2 541C914.3 541 868.7 541 823 541C777.3 541 731.7 541 686 541C640.3 541 594.7 541 548.8 541C503 541 457 541 411.2 541C365.3 541 319.7 541 274 541C228.3 541 182.7 541 137 541C91.3 541 45.7 541 22.8 541L0 541Z" fill="#b6c5f4"></path><path d="M0 482L22.8 480.5C45.7 479 91.3 476 137 467.7C182.7 459.3 228.3 445.7 274 444.8C319.7 444 365.3 456 411.2 458.8C457 461.7 503 455.3 548.8 454.2C594.7 453 640.3 457 686 456.2C731.7 455.3 777.3 449.7 823 445.2C868.7 440.7 914.3 437.3 937.2 435.7L960 434L960 541L937.2 541C914.3 541 868.7 541 823 541C777.3 541 731.7 541 686 541C640.3 541 594.7 541 548.8 541C503 541 457 541 411.2 541C365.3 541 319.7 541 274 541C228.3 541 182.7 541 137 541C91.3 541 45.7 541 22.8 541L0 541Z" fill="#91adf1"></path><path d="M0 475L22.8 480.7C45.7 486.3 91.3 497.7 137 501.8C182.7 506 228.3 503 274 498.3C319.7 493.7 365.3 487.3 411.2 490C457 492.7 503 504.3 548.8 504C594.7 503.7 640.3 491.3 686 491.2C731.7 491 777.3 503 823 501.8C868.7 500.7 914.3 486.3 937.2 479.2L960 472L960 541L937.2 541C914.3 541 868.7 541 823 541C777.3 541 731.7 541 686 541C640.3 541 594.7 541 548.8 541C503 541 457 541 411.2 541C365.3 541 319.7 541 274 541C228.3 541 182.7 541 137 541C91.3 541 45.7 541 22.8 541L0 541Z" fill="#6495ed"></path></svg>